{"extensionsUsed" : ["KHR_materials_emissive_strength"], "accessors" : [{"bufferView" : 0, "byteOffset" : 0, "componentType" : 5123, "count" : 240, "type" : "SCALAR", "max" : [239], "min" : [0]}, {"bufferView" : 1, "byteOffset" : 0, "componentType" : 5126, "count" : 240, "type" : "VEC3", "max" : [0.9510578513145447, 1, 0.9999999403953552], "min" : [-0.9510578513145447, -1, -0.9999999403953552], "name" : "POSITION"}, {"bufferView" : 1, "byteOffset" : 12, "componentType" : 5126, "count" : 240, "type" : "VEC3", "max" : [0.9920855760574341, 0.9435398578643799, 0.9435199499130249], "min" : [-0.9920855760574341, -0.9435398578643799, -0.9435199499130249], "name" : "NORMAL"}, {"bufferView" : 1, "byteOffset" : 24, "componentType" : 5126, "count" : 240, "type" : "VEC2", "max" : [1, 2], "min" : [0, 1.5276179313659668], "name" : "TEXCOORD_0"}], "asset" : {"generator" : "Aspose.3D 24.1.0", "version" : "2.0"}, "buffers" : [{"uri" : "data:application/octet-stream;base64,", "byteLength" : 8168}], "bufferViews" : [{"buffer" : 0, "byteOffset" : 0, "byteLength" : 480, "target" : 34963}, {"buffer" : 0, "byteOffset" : 484, "byteLength" : 7680, "byteStride" : 32, "target" : 34962}], "materials" : [{"name" : "Material", "extensions" : {"KHR_materials_emissive_strength" : {"emissiveStrength" : 10}}, "pbrMetallicRoughness" : {"baseColorFactor" : [0, 0.8056817054748535, 1, 1], "metallicFactor" : 0, "roughnessFactor" : 0.5}, "emissiveFactor" : [0.19999998807907104, 0.7362830638885498, 1], "alphaMode" : "OPAQUE", "doubleSided" : true}], "meshes" : [{"primitives" : [{"attributes" : {"POSITION" : 1, "NORMAL" : 2, "TEXCOORD_0" : 3}, "indices" : 0, "material" : 0, "mode" : 4}]}], "nodes" : [{"mesh" : 0, "name" : "Icosphere"}], "scene" : 0, "scenes" : [{"nodes" : [0]}]}